<svg xmlns="http://www.w3.org/2000/svg" width="227" height="118" viewBox="0 0 227 118">
  <defs>
    <linearGradient id="carolina-logo3-a" x1="50%" x2="50%" y1="-28.528%" y2="97.941%">
      <stop offset="0%" stop-color="#D3DFD7"/>
      <stop offset="100%" stop-color="#B2BEB6"/>
    </linearGradient>
  </defs>
  <g fill="none" fill-rule="evenodd">
    <ellipse cx="114.548" cy="59" stroke="#99D2EC" stroke-opacity=".3" stroke-width="10.5" opacity=".667" rx="53.421" ry="53.75"/>
    <path fill="#2F4859" d="M34.6971683,67.6154157 L38.883845,71.3909877 C33.7697713,76.0810502 28.3586583,78.4260463 22.6503438,78.4260463 C16.5458685,78.4260463 11.3418364,76.262131 7.03809135,71.9342355 C2.73434627,67.60634 0.58250601,62.3731055 0.58250601,56.234375 C0.58250601,50.1137529 2.73434627,44.8805184 7.03809135,40.5345145 C11.3418364,36.1885106 16.5458685,34.0155413 22.6503438,34.0155413 C28.3586583,34.0155413 33.7697713,36.3605374 38.883845,41.0505999 L34.6971683,44.8804967 C30.8436057,41.4399103 26.8280377,39.7196429 22.6503438,39.7196429 C18.1305111,39.7196429 14.263501,41.3312618 11.0491977,44.554548 C7.83489439,47.7778342 6.22776683,51.6710709 6.22776683,56.234375 C6.22776683,60.8157874 7.83489439,64.7180782 11.0491977,67.9413644 C14.263501,71.1646506 18.1305111,72.7762695 22.6503438,72.7762695 C26.8280377,72.7762695 30.8436057,71.0560021 34.6971683,67.6154157 Z M69.7031875,65.3066127 L69.7031875,61.1779297 C69.3790561,59.4214198 68.5147186,57.8279089 67.110149,56.3973493 C65.2193824,54.514081 62.9504964,53.5724609 60.3034231,53.5724609 C57.6383424,53.5724609 55.3649547,54.514081 53.4831917,56.3973493 C51.6014287,58.2806177 50.6605613,60.5622355 50.6605613,63.2422712 C50.6605613,65.9041986 51.6014287,68.1812894 53.4831917,70.0736119 C55.3649547,71.9659344 57.6383424,72.9120815 60.3034231,72.9120815 C62.9504964,72.9120815 65.2193824,71.9704614 67.110149,70.0871931 C68.5147186,68.6566335 69.3790561,67.0631226 69.7031875,65.3066127 Z M69.7031875,51.96988 L69.7031875,50.0141881 L75.3214375,50.0141881 L75.3214375,77.9914481 L69.7031875,77.9914481 L69.7031875,74.4875 C67.0020923,77.2942942 63.8688688,78.6976702 60.3034231,78.6976702 C56.0536999,78.6976702 52.4297848,77.1901727 49.4315691,74.1751325 C46.4333534,71.1600923 44.934268,67.5158417 44.934268,63.2422712 C44.934268,58.9687007 46.4333534,55.3244501 49.4315691,52.3094099 C52.4297848,49.2943697 56.0536999,47.7868722 60.3034231,47.7868722 C63.8688688,47.7868722 67.0020923,49.1811942 69.7031875,51.96988 Z M89.0429327,53.78976 C91.1317797,50.9467492 93.6977817,49.4528328 96.7410156,49.307966 L96.7410156,55.1478795 C94.7061905,55.2565296 93.0855577,55.9174744 91.8790685,57.1307338 C90.0603311,58.9415688 89.1149619,61.09643 89.0429327,63.5953823 L89.0429327,77.9642857 L83.4516935,77.9642857 L83.4516935,50.0141881 L89.0429327,50.0141881 L89.0429327,53.78976 Z M115.918696,47.7325474 C120.168419,47.7325474 123.792334,49.2445719 126.79055,52.2686663 C129.788766,55.2927607 131.287851,58.9415383 131.287851,63.2151088 C131.287851,67.4886793 129.788766,71.137457 126.79055,74.1615513 C123.792334,77.1856457 120.168419,78.6976702 115.918696,78.6976702 C111.68698,78.6976702 108.067567,77.1856457 105.060347,74.1615513 C102.053128,71.137457 100.549541,67.4886793 100.549541,63.2151088 C100.549541,58.9415383 102.053128,55.2927607 105.060347,52.2686663 C108.067567,49.2445719 111.68698,47.7325474 115.918696,47.7325474 Z M109.098465,56.3701869 C107.216702,58.2715636 106.275834,60.5531814 106.275834,63.2151088 C106.275834,65.8951445 107.216702,68.1767623 109.098465,70.0600307 C110.980228,71.943299 113.253615,72.8849191 115.918696,72.8849191 C118.583777,72.8849191 120.857164,71.943299 122.738927,70.0600307 C124.62069,68.1767623 125.561558,65.8951445 125.561558,63.2151088 C125.561558,60.5531814 124.62069,58.2715636 122.738927,56.3701869 C120.857164,54.4688102 118.583777,53.5181362 115.918696,53.5181362 C113.253615,53.5181362 110.980228,54.4688102 109.098465,56.3701869 Z M143.388697,34.4773019 L143.388697,77.9642857 L137.770447,77.9642857 L137.770447,34.4773019 L143.388697,34.4773019 Z M157.542365,50.0141881 L157.542365,77.9642857 L151.951126,77.9642857 L151.951126,50.0141881 L157.542365,50.0141881 Z M171.723044,57.5110073 L171.723044,77.9642857 L166.104794,77.9642857 L166.104794,50.0141881 L171.723044,50.0141881 L171.723044,53.2736747 C172.893519,50.0866052 175.243437,48.4930943 178.772868,48.4930943 C181.780087,48.4930943 184.170521,49.5659979 185.94424,51.7118373 C187.717959,53.8576767 188.631816,56.5512533 188.685838,59.7926479 L188.685838,77.9642857 L183.094599,77.9642857 L183.094599,60.009947 C183.094599,58.3983039 182.50937,57.0175629 181.338895,55.8676828 C180.168421,54.7178026 178.772876,54.1428711 177.152219,54.1428711 C175.549569,54.1428711 174.163027,54.7042215 172.992553,55.8269392 C172.34429,56.4969481 171.921125,57.0582985 171.723044,57.5110073 Z M220.963764,65.3066127 L220.963764,61.1779297 C220.639633,59.4214198 219.775295,57.8279089 218.370726,56.3973493 C216.479959,54.514081 214.211073,53.5724609 211.564,53.5724609 C208.898919,53.5724609 206.625532,54.514081 204.743769,56.3973493 C202.862006,58.2806177 201.921138,60.5622355 201.921138,63.2422712 C201.921138,65.9041986 202.862006,68.1812894 204.743769,70.0736119 C206.625532,71.9659344 208.898919,72.9120815 211.564,72.9120815 C214.211073,72.9120815 216.479959,71.9704614 218.370726,70.0871931 C219.775295,68.6566335 220.639633,67.0631226 220.963764,65.3066127 Z M220.963764,51.96988 L220.963764,50.0141881 L226.582014,50.0141881 L226.582014,77.9914481 L220.963764,77.9914481 L220.963764,74.4875 C218.262669,77.2942942 215.129446,78.6976702 211.564,78.6976702 C207.314277,78.6976702 203.690362,77.1901727 200.692146,74.1751325 C197.69393,71.1600923 196.194845,67.5158417 196.194845,63.2422712 C196.194845,58.9687007 197.69393,55.3244501 200.692146,52.3094099 C203.690362,49.2943697 207.314277,47.7868722 211.564,47.7868722 C215.129446,47.7868722 218.262669,49.1811942 220.963764,51.96988 Z"/>
    <path fill="url(#carolina-logo3-a)" d="M9.63184449,21.6075196 C9.65694222,21.7126402 9.67122045,21.7683077 9.67122045,21.7683077 C9.67122045,21.7683077 9.69885809,21.7481222 9.75119081,21.7089413 C9.80441341,21.7537905 9.83258911,21.7769445 9.83258911,21.7769445 C9.83258911,21.7769445 9.82082812,21.7414472 9.79819035,21.6736264 C10.724682,20.9751242 16.4684266,16.513606 18.6152347,11.691796 C20.9535661,6.4398178 20.8670627,1.29976245 18.4220239,0.211161071 C15.9769852,-0.877440307 12.0992976,2.49764349 9.76096622,7.74962172 C7.98051339,11.7485842 8.85937513,17.7852491 9.38007629,20.438079 C8.50417425,17.8768664 6.50787637,12.1866147 4.74507471,8.22729736 C2.40674334,2.97531913 4.27951599,-0.854098973 1.83447727,0.234502404 C-0.610561459,1.32310378 -0.69706487,6.46315914 1.64126649,11.7151374 C3.72188444,16.3882818 8.58513505,20.711367 9.63184449,21.6075196 Z" transform="translate(144.582 26.69)"/>
    <text fill="#99D2EC" font-family="CaviarDreams-Bold, Caviar Dreams" font-size="20.02" font-weight="bold" letter-spacing=".63">
      <tspan x="58.347" y="100.774">SPA SALO</tspan> <tspan x="156.361" y="100.774">N</tspan>
    </text>
  </g>
</svg>
