<svg xmlns="http://www.w3.org/2000/svg" width="159" height="83" viewBox="0 0 159 83">
  <defs>
    <linearGradient id="carolina-logo3-xs-a" x1="50%" x2="50%" y1="-28.528%" y2="97.941%">
      <stop offset="0%" stop-color="#D3DFD7"/>
      <stop offset="100%" stop-color="#B2BEB6"/>
    </linearGradient>
  </defs>
  <g fill="none" fill-rule="evenodd">
    <ellipse cx="80.234" cy="41.5" stroke="#99D2EC" stroke-opacity=".3" stroke-width="7.35" opacity=".667" rx="37.42" ry="37.825"/>
    <path fill="#2F4859" d="M24.3033029,47.5599958 L27.2358209,50.2156948 C23.6537165,53.514637 19.8635536,55.1640834 15.8652188,55.1640834 C11.5893969,55.1640834 7.9442819,53.6420074 4.92976442,50.5978097 C1.91524695,47.553612 0.408010817,43.8726081 0.408010817,39.5546875 C0.408010817,35.2495041 1.91524695,31.5685002 4.92976442,28.5115653 C7.9442819,25.4546304 11.5893969,23.9261858 15.8652188,23.9261858 C19.8635536,23.9261858 23.6537165,25.5756322 27.2358209,28.8745745 L24.3033029,31.5684849 C21.6041115,29.1484114 18.7914449,27.9383929 15.8652188,27.9383929 C12.6993447,27.9383929 9.99073421,29.0719892 7.73930589,31.339216 C5.48787757,33.6064427 4.36218029,36.3449058 4.36218029,39.5546875 C4.36218029,42.7772064 5.48787757,45.5220381 7.73930589,47.7892648 C9.99073421,50.0564915 12.6993447,51.1900879 15.8652188,51.1900879 C18.7914449,51.1900879 21.6041115,49.9800693 24.3033029,47.5599958 Z M48.8229375,45.9360073 L48.8229375,43.0319336 C48.5959027,41.7964224 47.9904857,40.6755631 47.0066683,39.669322 C45.6822987,38.3446502 44.093079,37.6823242 42.2389615,37.6823242 C40.3722311,37.6823242 38.7798582,38.3446502 37.4617951,39.669322 C36.143732,40.9939938 35.4847103,42.5988606 35.4847103,44.4839704 C35.4847103,46.3563431 36.143732,47.9580256 37.4617951,49.289066 C38.7798582,50.6201064 40.3722311,51.2856166 42.2389615,51.2856166 C44.093079,51.2856166 45.6822987,50.6232907 47.0066683,49.2986189 C47.9904857,48.2923778 48.5959027,47.1715185 48.8229375,45.9360073 Z M48.8229375,36.5550851 L48.8229375,35.1794713 L52.7581875,35.1794713 L52.7581875,54.8583915 L48.8229375,54.8583915 L48.8229375,52.39375 C46.9309809,54.3680205 44.7363442,55.3551409 42.2389615,55.3551409 C39.2622832,55.3551409 36.7239462,54.2947825 34.6238744,52.1740339 C32.5238026,50.0532853 31.4737825,47.4899564 31.4737825,44.4839704 C31.4737825,41.4779844 32.5238026,38.9146556 34.6238744,36.7939069 C36.7239462,34.6731583 39.2622832,33.6127999 42.2389615,33.6127999 C44.7363442,33.6127999 46.9309809,34.5935519 48.8229375,36.5550851 Z M62.3692788,37.8351702 C63.8323919,35.8354253 65.6297237,34.7846197 67.7613281,34.6827218 L67.7613281,38.7904576 C66.3360542,38.866881 65.2008973,39.3317828 64.3558233,40.1851772 C63.0819059,41.4589001 62.419731,42.9746076 62.3692788,44.7323451 L62.3692788,54.8392857 L58.4529483,54.8392857 L58.4529483,35.1794713 L62.3692788,35.1794713 L62.3692788,37.8351702 Z M81.1941526,33.5745884 C84.170831,33.5745884 86.709168,34.6381311 88.8092398,36.7652483 C90.9093116,38.8923655 91.9593317,41.4588787 91.9593317,44.4648647 C91.9593317,47.4708507 90.9093116,50.0373638 88.8092398,52.164481 C86.709168,54.2915982 84.170831,55.3551409 81.1941526,55.3551409 C78.2300873,55.3551409 75.6949036,54.2915982 73.5885252,52.164481 C71.4821469,50.0373638 70.4289736,47.4708507 70.4289736,44.4648647 C70.4289736,41.4588787 71.4821469,38.8923655 73.5885252,36.7652483 C75.6949036,34.6381311 78.2300873,33.5745884 81.1941526,33.5745884 Z M76.4169862,39.6502162 C75.0989231,40.9876253 74.4399014,42.592492 74.4399014,44.4648647 C74.4399014,46.3499745 75.0989231,47.9548413 76.4169862,49.2795131 C77.7350493,50.6041849 79.3274222,51.2665109 81.1941526,51.2665109 C83.0608831,51.2665109 84.653256,50.6041849 85.9713191,49.2795131 C87.2893822,47.9548413 87.9484038,46.3499745 87.9484038,44.4648647 C87.9484038,42.592492 87.2893822,40.9876253 85.9713191,39.6502162 C84.653256,38.3128072 83.0608831,37.6441127 81.1941526,37.6441127 C79.3274222,37.6441127 77.7350493,38.3128072 76.4169862,39.6502162 Z M100.435255,24.2509835 L100.435255,54.8392857 L96.5000048,54.8392857 L96.5000048,24.2509835 L100.435255,24.2509835 Z M110.349058,35.1794713 L110.349058,54.8392857 L106.432727,54.8392857 L106.432727,35.1794713 L110.349058,35.1794713 Z M120.28178,40.4526576 L120.28178,54.8392857 L116.34653,54.8392857 L116.34653,35.1794713 L120.28178,35.1794713 L120.28178,37.472161 C121.101628,35.2304087 122.747605,34.1095494 125.219762,34.1095494 C127.32614,34.1095494 129.000497,34.8642189 130.242882,36.3735805 C131.485266,37.8829421 132.125369,39.7775765 132.163208,42.0575405 L132.163208,54.8392857 L128.246877,54.8392857 L128.246877,42.2103864 C128.246877,41.0767731 127.83696,40.1055739 127.017112,39.2967599 C126.197264,38.4879459 125.219768,38.0835449 124.084594,38.0835449 C122.962033,38.0835449 121.990843,38.4783931 121.170995,39.2681013 C120.716926,39.7393788 120.420524,40.1342269 120.28178,40.4526576 Z M154.771976,45.9360073 L154.771976,43.0319336 C154.544941,41.7964224 153.939524,40.6755631 152.955707,39.669322 C151.631337,38.3446502 150.042117,37.6823242 148.188,37.6823242 C146.32127,37.6823242 144.728897,38.3446502 143.410834,39.669322 C142.09277,40.9939938 141.433749,42.5988606 141.433749,44.4839704 C141.433749,46.3563431 142.09277,47.9580256 143.410834,49.289066 C144.728897,50.6201064 146.32127,51.2856166 148.188,51.2856166 C150.042117,51.2856166 151.631337,50.6232907 152.955707,49.2986189 C153.939524,48.2923778 154.544941,47.1715185 154.771976,45.9360073 Z M154.771976,36.5550851 L154.771976,35.1794713 L158.707226,35.1794713 L158.707226,54.8583915 L154.771976,54.8583915 L154.771976,52.39375 C152.880019,54.3680205 150.685383,55.3551409 148.188,55.3551409 C145.211322,55.3551409 142.672985,54.2947825 140.572913,52.1740339 C138.472841,50.0532853 137.422821,47.4899564 137.422821,44.4839704 C137.422821,41.4779844 138.472841,38.9146556 140.572913,36.7939069 C142.672985,34.6731583 145.211322,33.6127999 148.188,33.6127999 C150.685383,33.6127999 152.880019,34.5935519 154.771976,36.5550851 Z"/>
    <path fill="url(#carolina-logo3-xs-a)" d="M6.7261634,15.169754 C6.7477026,15.2616625 6.76016792,15.310678 6.76016792,15.310678 C6.76016792,15.310678 6.78437979,15.2929272 6.82992474,15.2585969 C6.87622108,15.297861 6.90089908,15.3182103 6.90089908,15.3182103 C6.90089908,15.3182103 6.89054731,15.2870093 6.87071462,15.2277261 C7.58326866,14.6864011 11.5460353,11.5743057 13.0403246,8.2180771 C14.6850831,4.52388902 14.6300832,0.911029075 12.917479,0.14852855 C11.2048748,-0.613971975 8.48319457,1.76263036 6.83843607,5.45681844 C5.62092023,8.19140378 6.16302452,12.2769633 6.52681094,14.2149771 C5.88437898,12.3450254 4.52415923,8.49299804 3.32006674,5.78856204 C1.67530824,2.09437396 2.98379128,-0.595279023 1.27118706,0.167221502 C-0.441417155,0.929722027 -0.496416977,4.54258197 1.14834152,8.23677005 C2.59048056,11.4758674 5.92619041,14.4789942 6.7261634,15.169754 Z" transform="translate(101.27 18.774)"/>
    <text fill="#99D2EC" font-family="CaviarDreams-Bold, Caviar Dreams" font-size="14.014" font-weight="bold" letter-spacing=".441">
      <tspan x="40.918" y="70.815">SPA SALO</tspan> <tspan x="109.528" y="70.815">N</tspan>
    </text>
  </g>
</svg>
