<svg xmlns="http://www.w3.org/2000/svg" width="378" height="178" viewBox="0 0 378 178">
  <defs>
    <linearGradient id="carolina-logo-copy-2-a" x1="50%" x2="50%" y1="1.957%" y2="100%">
      <stop offset="0%" stop-color="#BFE3F6"/>
      <stop offset="100%" stop-color="#9CD2EF"/>
    </linearGradient>
    <linearGradient id="carolina-logo-copy-2-b" x1="92.802%" x2="34.615%" y1="-5.192%" y2="60.18%">
      <stop offset="0%" stop-color="#C6E7F8"/>
      <stop offset="44.602%" stop-color="#B3DEF3"/>
      <stop offset="100%" stop-color="#9BD2EE"/>
    </linearGradient>
  </defs>
  <g fill="none" fill-rule="evenodd">
    <g transform="translate(0 38.3)">
      <path stroke="url(#carolina-logo-copy-2-a)" stroke-linecap="round" stroke-width="2" d="M20.0122851,43.8228417 C20.0122851,43.8228417 23.3443003,55.5588517 23.3443003,71.206865 C23.3443003,86.8548782 20.0122851,114.3 20.0122851,114.3"/>
      <path fill="url(#carolina-logo-copy-2-b)" d="M20.2457708,44.645832 C20.2457708,44.645832 15.4387385,26.9420673 20.1251544,16.4162048 C24.8115703,5.89034237 32.699126,-0.822253251 37.742503,1.4232029 C42.7858801,3.66865904 43.0752543,14.0218584 38.3888384,24.5477209 C33.7024225,35.0735833 20.2457708,44.645832 20.2457708,44.645832 Z M20.0288948,44.6342243 C20.0288948,44.6342243 8.1172111,35.0752193 3.43079519,24.5493569 C-1.25562072,14.0234944 -0.966246518,3.67029504 4.07713056,1.4248389 C9.12050764,-0.820617252 5.19239703,6.93199696 9.87881294,17.4578594 C14.5652288,27.9837219 20.0288948,44.6342243 20.0288948,44.6342243 Z"/>
      <path fill="url(#carolina-logo-copy-2-b)" d="M25.6594939,70.4289911 C25.6594939,70.4289911 33.9241738,67.6382611 37.682761,62.9967926 C41.4413481,58.355324 42.5560488,53.0279764 40.1725147,51.0978285 C37.7889806,49.1676807 32.8098076,51.3656404 29.0512205,56.0071089 C25.2926334,60.6485774 25.6594939,70.4289911 25.6594939,70.4289911 Z" transform="rotate(11 33.534 60.418)"/>
      <path fill="url(#carolina-logo-copy-2-b)" d="M5.16457194,66.032378 C5.16457194,66.032378 13.4292519,63.241648 17.187839,58.6001794 C20.9464261,53.9587109 22.0611268,48.6313632 19.6775927,46.7012154 C17.2940586,44.7710675 12.3148856,46.9690272 8.55629848,51.6104958 C4.79771137,56.2519643 5.16457194,66.032378 5.16457194,66.032378 Z" transform="scale(-1 1) rotate(6 0 -192.777)"/>
      <path fill="url(#carolina-logo-copy-2-b)" d="M4.19535475,86.7921911 C4.19535475,86.7921911 12.4600347,84.0014611 16.2186218,79.3599926 C19.9772089,74.7185241 21.0919096,69.3911764 18.7083755,67.4610286 C16.3248414,65.5308807 11.3456684,67.7288404 7.58708128,72.3703089 C3.82849417,77.0117775 4.19535475,86.7921911 4.19535475,86.7921911 Z" transform="scale(-1 1) rotate(11 0 -48.568)"/>
      <path fill="url(#carolina-logo-copy-2-b)" d="M26.1058517,93.2286771 C26.1058517,93.2286771 34.2255813,90.436824 37.9380922,85.8522548 C41.6506032,81.2676856 42.7748869,76.0244713 40.4492502,74.1412078 C38.1236135,72.2579444 33.2287278,74.4477854 29.5162168,79.0323546 C25.8037059,83.6169237 26.1058517,93.2286771 26.1058517,93.2286771 Z" transform="rotate(20 33.876 83.351)"/>
    </g>
    <text fill="#B5C0B8" font-family="CaviarDreams-Bold, Caviar Dreams" font-size="79.2" font-weight="bold">
      <tspan x="48.425" y="114">Carolina</tspan>
    </text>
    <text fill="#99D2EC" font-family="CaviarDreams-Bold, Caviar Dreams" font-size="28.6" font-weight="bold" letter-spacing=".9">
      <tspan x="220.628" y="147.7">SPA SALO</tspan> <tspan x="360.648" y="147.7">N</tspan>
    </text>
    <rect width="322" height="21" x="53" y="157" fill="#FFF"/>
    <rect width="322" height="50" x="48" fill="#FFF"/>
  </g>
</svg>
